<?xml version="1.0" encoding="utf-8"?>
<!-- Generator: Adobe Illustrator 13.0.0, SVG Export Plug-In . SVG Version: 6.00 Build 14948)  -->
<!DOCTYPE svg PUBLIC "-//W3C//DTD SVG 1.1//EN" "http://www.w3.org/Graphics/SVG/1.1/DTD/svg11.dtd">
<svg version="1.1" id="Layer_1" xmlns="http://www.w3.org/2000/svg" xmlns:xlink="http://www.w3.org/1999/xlink" x="0px" y="0px"
	 width="574.979px" height="113.473px" viewBox="0 0 574.979 113.473" enable-background="new 0 0 574.979 113.473"
	 xml:space="preserve">
<g>
	<path fill="#FFFFFF" d="M377.996,0.075h4.203c0.235,0.823,0.35,110.452,0.122,113.145c-0.757,0.247-5.198,0.328-7.814,0.136
		c-0.11-0.253-0.248-0.537-0.358-0.83c-1.181-3.144-2.344-6.294-3.545-9.43c-0.242-0.633-0.563-1.255-0.946-1.813
		c-15.114-21.966-30.242-43.924-45.369-65.881c-0.219-0.319-0.457-0.626-0.763-1.043c-0.204,0.486-0.366,0.836-0.501,1.196
		c-4.861,13.023-9.721,26.046-14.579,39.07c-0.983,2.638-1.982,5.271-2.923,7.925c-0.235,0.664-0.374,1.4-0.376,2.103
		c-0.024,9.108-0.016,18.215-0.016,27.323v1.359h-4.456V96.34c-0.079-0.018-0.157-0.036-0.236-0.054
		c-1.16,2.806-2.143,5.682-3.222,8.52c-1.076,2.832-2.116,5.678-3.185,8.549h-4.767c0.167-0.492,0.293-0.896,0.44-1.291
		c3.487-9.335,6.972-18.671,10.474-28.001c0.323-0.86,0.474-1.714,0.473-2.635c-0.013-26.636-0.011-53.272-0.011-79.907V0.019
		c1.444,0,2.77-0.011,4.096,0.014c0.179,0.003,0.39,0.158,0.525,0.3c0.196,0.207,0.342,0.464,0.506,0.702
		c5.235,7.581,10.469,15.163,15.704,22.744c0.222,0.321,0.453,0.636,0.796,1.115c3.133-8.375,6.2-16.578,9.283-24.821h5.276
		c0.14,0.341,0.297,0.702,0.436,1.07c12.216,32.63,24.437,65.258,36.624,97.899c0.569,1.526,1.491,2.791,2.376,4.104
		c0.456,0.677,0.939,1.335,1.535,1.966c0.283-2.496,0.172-4.965,0.192-7.43c0.021-2.493,0.005-4.987,0.005-7.481v-7.589V75.13
		v-7.481v-7.481v-7.589v-7.481v-7.481v-7.481v-7.481v-7.59V7.584C377.996,5.101,377.996,2.618,377.996,0.075 M363.36,84.461
		l0.189-0.139c-9.776-26.325-19.554-52.65-29.351-79.032c-2.961,8.094-5.894,16.11-8.83,24.138
		C338.046,47.79,350.702,66.125,363.36,84.461 M305.398,8.038c-0.154,0.196-0.226,0.247-0.232,0.305
		c-0.023,0.214-0.033,0.431-0.033,0.647c0.012,20.311,0.024,40.622,0.04,60.933c0,0.032,0.02,0.077,0.045,0.093
		s0.069,0.003,0.16,0.003c0.111-0.269,0.241-0.557,0.353-0.853c4.792-12.818,9.576-25.64,14.393-38.449
		c0.269-0.713,0.14-1.191-0.262-1.771c-4.607-6.655-9.193-13.324-13.787-19.988C305.873,8.667,305.655,8.387,305.398,8.038"/>
	<path fill="#FFFFFF" d="M416.03,56.817c-1.166-1.236-2.285-2.318-3.285-3.502c-3.194-3.776-5.187-8.143-6.146-12.979
		c-1.164-5.861-1.168-11.73,0.407-17.505c2.722-9.966,9.125-16.613,18.746-20.204c3.918-1.462,8.004-2.195,12.172-2.425
		c2.308-0.127,4.621-0.177,6.933-0.181c10.553-0.018,21.104-0.008,31.657-0.008h1.344v4.393c-0.448,0.017-0.869,0.048-1.289,0.047
		c-11.275-0.013-22.549-0.045-33.824-0.038c-4.419,0.003-8.808,0.352-13.076,1.605c-10.634,3.125-16.984,10.211-18.972,21.043
		c-1.231,6.713-0.417,13.252,2.958,19.323c1.417,2.548,3.241,4.779,5.395,6.742c0.29,0.264,0.6,0.507,0.906,0.765
		c0.248-0.123,0.444-0.208,0.628-0.313c4.66-2.653,9.71-4.072,15.013-4.576c2.764-0.262,5.551-0.386,8.327-0.397
		c10.843-0.044,21.684-0.018,32.525-0.018h1.438c0.075,1.476,0.029,2.893,0.028,4.431c-1.482,0-2.846,0.003-4.208-0.001
		c-0.397-0.002-0.795-0.034-1.191-0.035c-9.975-0.001-19.948-0.018-29.922,0.006c-4.934,0.013-9.814,0.48-14.518,2.1
		c-1.253,0.432-2.467,0.975-3.874,1.537c1.785,1.001,3.479,1.603,5.205,2.115c4.084,1.213,8.281,1.672,12.521,1.686
		c10.227,0.032,20.454,0.012,30.682,0.009c1.373-0.001,2.746-0.022,4.119-0.032c0.354-0.002,0.708,0,1.129,0v4.369
		c-0.339,0.021-0.652,0.059-0.964,0.059c-11.926-0.002-23.853,0.038-35.777-0.032c-5.854-0.035-11.591-0.906-17.032-3.206
		c-1.393-0.589-2.734-1.3-4.224-2.014c-0.23,0.182-0.549,0.403-0.833,0.663c-4.733,4.343-7.551,9.696-8.459,16.056
		c-0.668,4.679-0.515,9.326,1,13.819c3.075,9.114,9.35,14.892,18.621,17.422c3.824,1.043,7.738,1.451,11.686,1.463
		c10.264,0.033,20.526,0.011,30.79,0.011h5.228c0.055,1.476,0.041,2.894,0.01,4.398c-0.497,0-0.889,0-1.282,0
		c-11.709-0.005-23.418,0.018-35.126-0.028c-5.56-0.022-11.035-0.727-16.254-2.757c-10.44-4.061-16.771-11.603-18.798-22.635
		c-1.134-6.17-0.856-12.301,1.066-18.312c1.507-4.713,4.111-8.733,7.704-12.122C415.475,57.315,415.743,57.078,416.03,56.817"/>
	<path fill="#FFFFFF" d="M230.713,0.049h5.299c14.122,37.727,28.251,75.473,42.417,113.318h-4.867
		c-13.387-35.964-26.789-71.97-40.231-108.086c-6.461,18.163-13.362,36.09-20.044,54.099c-6.679,17.999-13.395,35.984-20.1,53.991
		h-4.582c-0.029-0.057-0.047-0.086-0.06-0.118c-0.013-0.033-0.037-0.072-0.029-0.102c0.056-0.208,0.106-0.419,0.181-0.62
		C202.692,75.062,216.688,37.593,230.713,0.049"/>
	<path fill="#FFFFFF" d="M4.618,113.381H0C0.072,112.58,41.602,1.235,42.268,0.047h5.182c14.127,37.74,28.257,75.489,42.42,113.326
		h-4.819C71.606,77.408,58.139,41.415,44.794,5.192c-6.472,18.252-13.391,36.183-20.066,54.205
		C18.058,77.405,11.324,95.388,4.618,113.381"/>
	<path fill="#FFFFFF" d="M116.477,64.822v48.52h-4.33V60.453c0.481-0.016,0.935-0.045,1.39-0.045
		c11.454,0.009,22.909,0.045,34.363,0.02c4.935-0.011,9.821-0.528,14.478-2.286c9.753-3.683,15.377-10.79,17.051-21.012
		c0.837-5.112,0.431-10.188-1.413-15.047c-3.119-8.22-8.985-13.539-17.426-16.001c-3.698-1.079-7.491-1.535-11.334-1.623
		c-1.119-0.026-2.239-0.049-3.359-0.05c-9.214-0.004-18.429-0.004-27.643,0c-1.662,0.001-3.324,0.034-4.985,0.043
		c-0.353,0.003-0.705-0.031-1.12-0.052V0.082c0.348-0.024,0.659-0.066,0.97-0.066c11.78-0.003,23.56-0.043,35.34,0.015
		c5.777,0.028,11.474,0.772,16.854,3.01c10.585,4.403,16.755,12.323,18.459,23.66c0.854,5.684,0.571,11.336-1.195,16.825
		c-2.9,9.007-8.926,15.1-17.712,18.498c-3.973,1.537-8.116,2.328-12.354,2.593c-2.233,0.14-4.475,0.191-6.714,0.196
		c-9.286,0.021-18.573,0.009-27.859,0.009C117.509,64.822,117.08,64.822,116.477,64.822"/>
	<path fill="#FFFFFF" d="M574.979,108.975v4.266c-0.791,0.224-59.81,0.329-62.284,0.113c-0.224-0.755-0.283-111.938-0.05-113.275
		h4.29c0.148,2.584,0.043,5.175,0.063,7.761c0.019,2.566,0.004,5.132,0.004,7.698v7.806v7.806v7.806v7.698v7.806v7.806v7.698v7.806
		v7.806v7.806v7.697c0,2.597,0,5.194,0,7.896H574.979z"/>
</g>
</svg>
